# xmcd
#
# Track frame offsets:
#	150
#	23572
#	38040
#	55512
#	74492
#	88600
#	109055
#	132027
#	152915
#	170965
#	185272
#	202962
#	220385
#	233612
#	251420
#	267772
#	283112
#	300010
#	315505
#	333127
#
# Disc length: 4622 seconds
#
# Revision: 12
# Processed by: cddbd v1.5.2PL0 Copyright (c) Steve Scherf et al.
# Submitted via: EZCDAudioConverter 2.1.7.1
#
DISCID=08120c14
DTITLE=Marvin Gaye - Let's Get It On 2/2
DYEAR=1973
DGENRE=
TTITLE0=Marvin Gaye - Let's Get It On [Demo]
TTITLE1=Marvin Gaye - Let's Get It On (Part 2)
TTITLE2=Marvin Gaye - Please Stay (Once You Go Away) [Alternate Mix]
TTITLE3=Marvin Gaye - If I Should Die Tonight [Demo]
TTITLE4=Marvin Gaye - Come Get To This [Alternate Mix]
TTITLE5=Marvin Gaye - Distant Lover [Alternate Mix]
TTITLE6=Marvin Gaye - You Sure Love To Ball [Alternate Mix w/Alternate Vocal]
TTITLE7=Marvin Gaye - Just To Keep You Satisfied [A Cappella w/Alternate Vocal
TTITLE7=]
TTITLE8=The Originals - Just To Keep You Satisfied (1970)
TTITLE9=The Monitors - Just To Keep You Satisfied (1968)
TTITLE10=Marvin Gaye - Where Are We Going? [Alternate Mix]
TTITLE11=Marvin Gaye - The World Is Rated X [Alternate Mix]
TTITLE12=Marvin Gaye - I'm Gonna Give You Respect
TTITLE13=Marvin Gaye - Try It, You'll Like It
TTITLE14=Marvin Gaye - You Are That Special One
TTITLE15=Marvin Gaye - We Can Make It Baby
TTITLE16=Marvin Gaye - Running From Love [Instrumental] - Version 1
TTITLE17=Marvin Gaye - Mandota [Instrumental]
TTITLE18=Marvin Gaye - Running From Love [Instrumental] - Version 2
TTITLE19=Marvin Gaye - Come Get To This [Live From Oakland]
EXTD=
EXTT0=
EXTT1=
EXTT2=
EXTT3=
EXTT4=
EXTT5=
EXTT6=
EXTT7=
EXTT8=
EXTT9=
EXTT10=
EXTT11=
EXTT12=
EXTT13=
EXTT14=
EXTT15=
EXTT16=
EXTT17=
EXTT18=
EXTT19=
PLAYORDER=
